#N canvas 153 75 1054 699 10;
#X obj 37 -33 inlet;
#X obj 37 128 outlet;
#X obj 100 59 prepend devicename;
#X obj 37 -10 route open;
#X obj 37 105 MTBASerial;
#X obj 94 128 outlet;
#X obj 37 13 route float;
#X obj 37 36 prepend open;
#X obj 37 82 comport COM 19200;
#X connect 0 0 3 0;
#X connect 2 0 8 0;
#X connect 3 0 6 0;
#X connect 3 1 8 0;
#X connect 4 0 1 0;
#X connect 4 2 5 0;
#X connect 6 0 7 0;
#X connect 6 1 2 0;
#X connect 7 0 8 0;
#X connect 8 0 4 0;
