#N canvas 543 51 429 548 10;
#X obj 67 -40 inlet;
#X obj 67 470 outlet;
#X obj 67 346 prepend;
#X obj 67 277 t f b;
#X obj 94 417 i;
#X obj 67 395 t f b;
#X obj 67 448 +;
#X obj 112 175 sel 123;
#X obj 67 239 spigot 0;
#X msg 112 219 1;
#X obj 67 130 t f f;
#X obj 112 155 spigot 1;
#X msg 139 219 0;
#X obj 112 196 t b b;
#X obj 131 326 == 0;
#X obj 106 326 i 0;
#X obj 67 372 route 0 1;
#X obj 67 109 comport COM 19200;
#X obj 67 25 prepend devicename;
#X msg 113 70 0;
#X msg 157 133 1;
#X obj 67 -16 route open;
#X obj 67 5 t a b;
#X obj 109 395 * 256;
#X connect 0 0 21 0;
#X connect 2 0 16 0;
#X connect 3 0 2 0;
#X connect 3 1 15 0;
#X connect 4 0 6 1;
#X connect 5 0 6 0;
#X connect 5 1 4 0;
#X connect 6 0 1 0;
#X connect 7 0 13 0;
#X connect 8 0 3 0;
#X connect 9 0 8 1;
#X connect 10 0 8 0;
#X connect 10 1 11 0;
#X connect 11 0 7 0;
#X connect 12 0 11 1;
#X connect 12 0 15 1;
#X connect 13 0 9 0;
#X connect 13 1 12 0;
#X connect 14 0 15 1;
#X connect 15 0 14 0;
#X connect 15 0 2 1;
#X connect 16 0 5 0;
#X connect 16 1 23 0;
#X connect 17 0 10 0;
#X connect 18 0 17 0;
#X connect 19 0 8 1;
#X connect 20 0 11 1;
#X connect 21 0 22 0;
#X connect 21 1 17 0;
#X connect 22 0 18 0;
#X connect 22 1 20 0;
#X connect 22 1 19 0;
#X connect 23 0 4 1;
