#N canvas 361 157 488 808 10;
#X obj 40 36 inlet;
#X obj 380 193 outlet;
#X obj 64 76 i;
#X obj 64 96 == 255;
#X obj 40 96 < 5;
#X obj 40 116 &&;
#X obj 40 136 sel 1;
#X obj 70 176 f;
#X obj 40 156 t b b;
#X msg 133 266 1;
#X obj 100 288 spigot;
#X obj 100 244 t b f;
#X msg 100 266 0;
#X obj 175 554 i;
#X obj 199 547 - 1;
#X obj 199 565 moses 0;
#X obj 142 574 spigot;
#X obj 40 56 t f f b f f f;
#X obj 115 477 t b f;
#X text 376 177 command;
#X obj 340 440 outlet;
#X text 340 424 length;
#X obj 300 760 outlet;
#X text 306 743 data;
#X obj 175 380 t f f;
#X obj 175 423 spigot;
#X obj 223 686 +;
#X obj 249 686 i;
#X obj 223 666 <<;
#X msg 249 541 0;
#X obj 175 477 t f b;
#X obj 238 646 * 8;
#X obj 208 403 < 5;
#X obj 157 663 == 0;
#X obj 142 683 i;
#X obj 142 703 sel 1;
#X obj 208 743 i;
#X obj 142 595 t b f;
#X text 149 55 255 - channel(<5) - length (bytes \, <5) - data;
#X connect 0 0 17 0;
#X connect 2 0 3 0;
#X connect 3 0 5 1;
#X connect 4 0 5 0;
#X connect 5 0 6 0;
#X connect 6 0 8 0;
#X connect 7 0 1 0;
#X connect 8 0 9 0;
#X connect 8 1 7 0;
#X connect 9 0 10 1;
#X connect 10 0 24 0;
#X connect 11 0 12 0;
#X connect 11 1 10 0;
#X connect 12 0 10 1;
#X connect 13 0 14 0;
#X connect 13 0 16 1;
#X connect 14 0 15 0;
#X connect 15 1 13 1;
#X connect 15 1 31 0;
#X connect 15 1 33 0;
#X connect 16 0 37 0;
#X connect 17 0 4 0;
#X connect 17 1 2 1;
#X connect 17 2 2 0;
#X connect 17 3 7 1;
#X connect 17 4 11 0;
#X connect 17 5 18 0;
#X connect 18 0 13 0;
#X connect 18 1 16 0;
#X connect 24 0 25 0;
#X connect 24 1 32 0;
#X connect 25 0 20 0;
#X connect 25 0 30 0;
#X connect 26 0 27 0;
#X connect 26 0 36 1;
#X connect 27 0 26 1;
#X connect 28 0 26 0;
#X connect 29 0 27 0;
#X connect 30 0 13 0;
#X connect 30 1 29 0;
#X connect 31 0 28 1;
#X connect 32 0 25 1;
#X connect 33 0 34 1;
#X connect 34 0 35 0;
#X connect 35 0 36 0;
#X connect 36 0 22 0;
#X connect 37 0 34 0;
#X connect 37 1 28 0;
