#N canvas 17 1 1349 667 10;
#X declare -lib mrpeach;
#X obj 149 131 t f b;
#X obj 309 219 i;
#X obj 334 220 + 1;
#X msg 291 97 0;
#X obj 439 97 import mrpeach;
#X obj 392 304 udpsend;
#X obj 426 276 packOSC;
#X msg 392 158 connect 192.168.1.225 9000;
#X msg 427 257 send /Eloi \$1;
#X floatatom 427 232 5 0 0 0 - - -;
#X msg 410 189 disconnect;
#X obj 309 242 % 999;
#X floatatom 203 79 5 0 0 0 - - -;
#X obj 206 56 hsl 200 15 0 10 0 0 empty empty empty -2 -8 0 10 -262144
-1 -1 0 1;
#X floatatom 82 -1 5 0 0 0 - - -;
#X floatatom 116 -1 5 0 0 0 - - -;
#X floatatom 151 -1 5 0 0 0 - - -;
#X obj 151 101 hip 0.024;
#X obj 148 77 lop;
#X msg 82 -21 5.48;
#X msg 116 -22 0.91;
#X msg 151 -23 0.61;
#X obj 108 -97 loadbang;
#X obj 56 158 > 200;
#X obj 104 348 bng 40 250 50 0 empty empty empty 17 7 0 10 -262144
-258113 -1;
#X obj 56 180 sel 1;
#X obj 56 363 timer;
#X obj 56 310 t b b b;
#X floatatom 56 386 5 0 0 0 - - -;
#X obj 56 283 spigot;
#X obj 56 202 t b b;
#X msg 89 262 0;
#X msg 128 239 1;
#X obj 128 177 < 0;
#X obj 128 202 sel 1;
#X obj 56 434 /;
#X text 17 385 Period;
#X floatatom 56 458 5 0 0 0 - - -;
#X msg 56 411 60000 \$1;
#X text 29 460 BPM;
#X obj 103 642 table bpm 100;
#X obj 108 576 tabwrite bpm;
#X obj 177 531 i;
#X obj 214 531 + 1;
#X obj 177 554 % 99;
#X obj 55 491 t f b;
#X msg 109 597 \; bpm const 0;
#X obj 1365 282;
#X msg 775 119 ports;
#X obj 804 265 print;
#X obj 773 203 comport;
#X obj 539 66 r Heart;
#X msg 400 -305 close;
#X obj 439 -216 i;
#X obj 478 -216 + 1;
#X obj 400 -162 prepend;
#X obj 400 -242 t f b;
#X obj 405 -88 * 255;
#X obj 388 -58 i;
#X obj 361 -91 t f b;
#X obj 361 -27 +;
#X obj 440 -191 % 2;
#X obj 563 -268 loadbang;
#X msg 499 -245 0;
#X obj 470 20 print;
#X obj 400 -280 comport COM32 19200;
#X obj 184 -205 table breathSignal 1000;
#X obj 191 270 tabwrite breathSignal;
#X obj 400 -136 route 1 0;
#X msg 439 -311 devicename COM34;
#X connect 0 0 23 0;
#X connect 0 0 33 0;
#X connect 0 0 67 0;
#X connect 0 1 1 0;
#X connect 1 0 2 0;
#X connect 1 0 11 0;
#X connect 2 0 1 1;
#X connect 3 0 1 1;
#X connect 6 0 5 0;
#X connect 7 0 5 0;
#X connect 8 0 6 0;
#X connect 9 0 8 0;
#X connect 10 0 5 0;
#X connect 11 0 67 1;
#X connect 12 0 17 1;
#X connect 13 0 12 0;
#X connect 14 0 18 1;
#X connect 15 0 18 2;
#X connect 16 0 18 3;
#X connect 17 0 0 0;
#X connect 18 0 17 0;
#X connect 19 0 14 0;
#X connect 20 0 15 0;
#X connect 21 0 16 0;
#X connect 22 0 21 0;
#X connect 22 0 20 0;
#X connect 22 0 19 0;
#X connect 23 0 25 0;
#X connect 25 0 30 0;
#X connect 26 0 28 0;
#X connect 27 0 26 0;
#X connect 27 1 26 1;
#X connect 27 2 24 0;
#X connect 28 0 38 0;
#X connect 29 0 27 0;
#X connect 30 0 31 0;
#X connect 30 1 29 0;
#X connect 31 0 29 1;
#X connect 32 0 29 1;
#X connect 33 0 34 0;
#X connect 34 0 32 0;
#X connect 35 0 37 0;
#X connect 37 0 45 0;
#X connect 38 0 35 0;
#X connect 42 0 43 0;
#X connect 42 0 44 0;
#X connect 43 0 42 1;
#X connect 44 0 41 1;
#X connect 45 0 41 0;
#X connect 45 1 42 0;
#X connect 48 0 50 0;
#X connect 50 0 49 0;
#X connect 50 1 49 0;
#X connect 52 0 65 0;
#X connect 53 0 54 0;
#X connect 53 0 61 0;
#X connect 54 0 53 1;
#X connect 55 0 68 0;
#X connect 56 0 55 0;
#X connect 56 1 53 0;
#X connect 57 0 58 1;
#X connect 58 0 60 1;
#X connect 59 0 60 0;
#X connect 59 1 58 0;
#X connect 60 0 18 0;
#X connect 61 0 55 1;
#X connect 62 0 63 0;
#X connect 63 0 53 1;
#X connect 65 0 56 0;
#X connect 68 0 59 0;
#X connect 68 1 57 0;
#X connect 69 0 65 0;
