#N canvas 960 44 958 324 10;
#X declare -lib mrpeach;
#X declare -path ../PdAbstractions;
#X obj 149 131 t f b;
#X obj 314 222 i;
#X obj 339 223 + 1;
#X msg 329 184 0;
#X obj 601 -104 import mrpeach;
#X obj 517 320 udpsend;
#X obj 551 292 packOSC;
#X floatatom 433 164 5 0 0 0 - - -;
#X msg 529 174 disconnect;
#X obj 314 245 % 999;
#X floatatom 203 79 5 0 0 0 - - -;
#X obj 206 56 hsl 200 15 0 10 0 0 empty empty empty -2 -8 0 10 -262144
-1 -1 0 1;
#X floatatom 85 -17 5 0 0 0 - - -;
#X floatatom 119 -17 5 0 0 0 - - -;
#X floatatom 154 -17 5 0 0 0 - - -;
#X obj 200 108 hip 0.024;
#X obj 151 61 lop;
#X msg 85 -37 5.48;
#X msg 119 -38 0.91;
#X msg 154 -39 0.61;
#X obj 111 -113 loadbang;
#X obj 104 348 bng 40 250 50 0 empty empty empty 17 7 0 10 -262144
-258113 -1;
#X obj 56 180 sel 1;
#X obj 56 363 timer;
#X obj 56 310 t b b b;
#X floatatom 56 386 5 0 0 0 - - -;
#X obj 56 283 spigot;
#X obj 56 202 t b b;
#X msg 89 262 0;
#X msg 128 239 1;
#X obj 128 177 < 0;
#X obj 128 202 sel 1;
#X obj 56 434 /;
#X text 17 385 Period;
#X floatatom 56 458 5 0 0 0 - - -;
#X msg 56 411 60000 \$1;
#X text 29 460 BPM;
#X obj 388 335 table bpm 100;
#X obj 108 576 tabwrite bpm;
#X obj 177 531 i;
#X obj 214 531 + 1;
#X obj 177 554 % 99;
#X obj 55 491 t f b;
#X msg 388 355 \; bpm const 0;
#X obj 243 335 table breathSignal 1000;
#X obj 191 270 tabwrite breathSignal;
#X floatatom 197 196 5 0 0 0 - - -;
#X obj 291 23 - 250;
#X floatatom 318 3 5 0 0 0 - - -;
#X obj 56 158 > 30;
#X msg 517 154 connect 192.168.1.224 9000;
#X msg 552 273 send /breathing \$1;
#X obj 438 -65 arduinoSerial;
#X msg 422 -99 close;
#X floatatom 438 -42 5 0 0 0 - - -;
#X msg 218 -112 close;
#X msg 325 -95 devices;
#X msg 265 -111 devicename COM32;
#X obj 230 -74 comport COM32 19200;
#X msg 505 -100 open COM32;
#X text 396 -26 MISSING CONNECTION;
#X obj 552 251 f;
#X obj 552 229 metro 100;
#X msg 579 206 0;
#X msg 552 206 1;
#X text 614 230 10-hz update rate;
#X text 392 142 MISSING CONNECTION;
#X obj 694 -104 path ../PdAbstractions;
#X connect 0 0 30 0;
#X connect 0 0 45 0;
#X connect 0 0 46 0;
#X connect 0 0 49 0;
#X connect 0 1 1 0;
#X connect 1 0 2 0;
#X connect 1 0 9 0;
#X connect 2 0 1 1;
#X connect 3 0 1 1;
#X connect 6 0 5 0;
#X connect 7 0 61 1;
#X connect 8 0 63 0;
#X connect 8 0 5 0;
#X connect 9 0 45 1;
#X connect 10 0 15 1;
#X connect 11 0 10 0;
#X connect 12 0 16 1;
#X connect 13 0 16 2;
#X connect 14 0 16 3;
#X connect 16 0 0 0;
#X connect 17 0 12 0;
#X connect 18 0 13 0;
#X connect 19 0 14 0;
#X connect 20 0 19 0;
#X connect 20 0 18 0;
#X connect 20 0 17 0;
#X connect 22 0 27 0;
#X connect 23 0 25 0;
#X connect 24 0 23 0;
#X connect 24 1 23 1;
#X connect 24 2 21 0;
#X connect 25 0 35 0;
#X connect 26 0 24 0;
#X connect 27 0 28 0;
#X connect 27 1 26 0;
#X connect 28 0 26 1;
#X connect 29 0 26 1;
#X connect 30 0 31 0;
#X connect 31 0 29 0;
#X connect 32 0 34 0;
#X connect 34 0 42 0;
#X connect 35 0 32 0;
#X connect 39 0 40 0;
#X connect 39 0 41 0;
#X connect 40 0 39 1;
#X connect 41 0 38 1;
#X connect 42 0 38 0;
#X connect 42 1 39 0;
#X connect 47 0 16 0;
#X connect 48 0 47 1;
#X connect 49 0 22 0;
#X connect 50 0 64 0;
#X connect 50 0 5 0;
#X connect 51 0 6 0;
#X connect 52 0 54 0;
#X connect 53 0 52 0;
#X connect 55 0 58 0;
#X connect 56 0 58 0;
#X connect 57 0 58 0;
#X connect 59 0 52 0;
#X connect 61 0 51 0;
#X connect 62 0 61 0;
#X connect 63 0 62 0;
#X connect 64 0 62 0;
