#N canvas 86 46 670 574 10;
#X declare -path ../;
#X floatatom 179 -147 5 0 0 0 - - -;
#X msg 218 -322 open COM4;
#X msg 179 -322 close;
#X obj 213 -367 path ../;
#X obj 179 -247 arduinoSerial;
#X connect 1 0 4 0;
#X connect 2 0 4 0;
#X connect 4 0 0 0;
