#N canvas 184 -11 1366 685 10;
#X obj 410 -270 comport COM29 19200;
#X msg 450 -301 devicename COM29;
#X msg 410 -295 close;
#X obj 449 -206 i;
#X obj 488 -206 + 1;
#X obj 410 -152 prepend;
#X obj 410 -232 t f b;
#X obj 415 -78 * 255;
#X obj 398 -48 i;
#X obj 371 -81 t f b;
#X obj 371 -17 +;
#X obj 450 -181 % 2;
#X obj 504 -141 print;
#X obj 573 -258 loadbang;
#X msg 509 -235 0;
#X obj 410 -126 route 0 1;
#X connect 0 0 6 0;
#X connect 1 0 0 0;
#X connect 2 0 0 0;
#X connect 3 0 4 0;
#X connect 3 0 11 0;
#X connect 4 0 3 1;
#X connect 5 0 15 0;
#X connect 6 0 5 0;
#X connect 6 1 3 0;
#X connect 7 0 8 1;
#X connect 8 0 10 1;
#X connect 9 0 10 0;
#X connect 9 1 8 0;
#X connect 11 0 5 1;
#X connect 13 0 14 0;
#X connect 14 0 3 1;
#X connect 15 0 9 0;
#X connect 15 1 7 0;
